<svg width="608" height="587" fill="none" xmlns="http://www.w3.org/2000/svg"><path fill-rule="evenodd" clip-rule="evenodd" d="M301.536 58.77c37.977 7.756 76.553-14.514 114.545-6.84 42.691 8.622 85.035 24.373 117.64 53.736 34.553 31.118 67.365 71.117 72.8 117.77 5.429 46.605-40.098 84.917-43.738 131.703-4.442 57.082 53.194 121.851 20.389 168.353-31.994 45.351-106.287 17.373-159.843 29.323-41.772 9.321-79.658 36.882-122.3 33.633-41.942-3.196-76.049-32.78-113.819-51.626-37.578-18.749-86.765-23.721-109.242-59.672-22.752-36.39 2.957-85.835-7.818-127.558-11.259-43.6-48.286-76.282-56.274-120.624-9.727-53.997-24.685-116.9 5.265-162.542C48.556 19.601 109.778 1.232 162.7.172c50.722-1.016 89.097 48.437 138.837 58.597z" fill="#C9A66B" fill-opacity=".5"/></svg>