<svg width="70" height="70" fill="none" xmlns="http://www.w3.org/2000/svg"><path fill-rule="evenodd" clip-rule="evenodd" d="M9.406.11c0 .06-.291.109-.656.109-.365 0-.656.048-.656.11 0 .06-.197.108-.438.108-.24 0-.437.05-.437.11S7.12.657 7 .657s-.219.048-.219.109c0 .06-.147.109-.328.109-.18 0-.328.05-.328.11s-.098.109-.219.109c-.12 0-.218.049-.218.11 0 .06-.088.109-.195.109-.107 0-.266.098-.352.218-.087.12-.235.219-.329.219-.093 0-.24.098-.328.219-.086.12-.221.218-.299.218-.184 0-1.997 1.814-1.997 1.998 0 .078-.099.213-.22.3-.12.086-.218.234-.218.327 0 .094-.098.242-.219.329-.12.086-.218.245-.218.352 0 .107-.05.194-.11.194s-.11.099-.11.22c0 .12-.048.218-.109.218-.06 0-.109.098-.109.219 0 .12-.05.218-.11.218s-.109.148-.109.329c0 .18-.049.328-.11.328-.06 0-.109.197-.109.437s-.049.438-.109.438-.11.291-.11.656c0 .365-.048.656-.109.656C.037 9.406 0 18.046 0 35.11s.037 25.703.11 25.703c.06 0 .109.247.109.547 0 .301.049.547.11.547.06 0 .108.197.108.438 0 .24.05.437.11.437s.11.099.11.219.048.219.109.219c.06 0 .109.147.109.328 0 .18.05.328.11.328s.109.098.109.219c0 .12.049.219.11.219.06 0 .109.087.109.194 0 .107.098.266.218.352.12.087.219.235.219.329 0 .093.098.24.219.328.12.086.218.221.218.299 0 .184 1.814 1.998 1.998 1.998.078 0 .213.098.3.218.086.12.234.219.327.219.094 0 .242.098.329.219.086.12.245.219.352.219.107 0 .194.049.194.109s.099.11.22.11c.12 0 .218.049.218.109s.148.109.328.109c.18 0 .328.05.328.11s.148.109.328.109c.18 0 .329.049.329.11 0 .06.147.109.328.109.18 0 .328.049.328.109s.291.11.656.11c.365 0 .656.048.656.109 0 .072 8.604.109 25.594.109 16.99 0 25.594-.037 25.594-.11 0-.06.291-.109.656-.109.364 0 .656-.048.656-.11 0-.06.148-.109.328-.109.18 0 .328-.049.328-.109s.148-.11.329-.11c.18 0 .328-.049.328-.109s.147-.109.328-.109c.18 0 .328-.05.328-.11s.098-.109.219-.109c.12 0 .219-.049.219-.11 0-.06.087-.109.194-.109.107 0 .266-.098.352-.218.087-.12.226-.219.309-.219.083 0 .288-.148.457-.328.168-.18.362-.328.429-.328.159 0 1.54-1.381 1.54-1.54 0-.067.147-.26.328-.429.18-.168.328-.374.328-.457 0-.083.098-.222.219-.309.12-.086.219-.245.219-.352 0-.107.049-.195.109-.195s.11-.098.11-.218.049-.219.109-.219.109-.148.109-.328c0-.18.05-.328.11-.328s.109-.148.109-.328c0-.18.049-.328.11-.328.06 0 .109-.148.109-.329 0-.18.049-.328.109-.328s.11-.291.11-.656c0-.364.048-.656.109-.656.072 0 .109-8.605.109-25.594 0-16.99-.037-25.594-.11-25.594-.06 0-.109-.291-.109-.656 0-.365-.048-.656-.11-.656-.06 0-.109-.148-.109-.328 0-.18-.049-.329-.109-.329s-.11-.147-.11-.328c0-.18-.049-.328-.109-.328s-.109-.147-.109-.328c0-.18-.05-.328-.11-.328s-.109-.098-.109-.219c0-.12-.049-.218-.11-.218-.06 0-.109-.088-.109-.195 0-.107-.098-.266-.218-.352-.12-.087-.219-.235-.219-.329 0-.093-.098-.24-.219-.328-.12-.086-.219-.221-.219-.299 0-.184-1.813-1.997-1.997-1.997-.078 0-.213-.099-.3-.22-.086-.12-.234-.218-.328-.218-.093 0-.24-.098-.328-.219-.086-.12-.245-.218-.352-.218-.107 0-.195-.05-.195-.11s-.098-.11-.218-.11-.219-.048-.219-.109c0-.06-.148-.109-.328-.109-.18 0-.328-.05-.328-.11S63.12.657 63 .657s-.219-.049-.219-.11c0-.06-.197-.109-.437-.109s-.438-.049-.438-.109-.246-.11-.547-.11c-.3 0-.547-.048-.547-.109C60.813.037 52.172 0 35.11 0 18.047 0 9.406.037 9.406.11zm50.969 3.937c0 .06.197.11.438.11.24 0 .437.048.437.109 0 .06.148.109.328.109.18 0 .328.05.328.11s.099.109.219.109.219.049.219.11c0 .06.098.109.218.109s.22.049.22.109.074.11.165.11c.216 0 2.022 1.805 2.022 2.021 0 .091.049.166.11.166.06 0 .109.098.109.218s.049.22.109.22.11.098.11.218.049.219.109.219.109.147.109.328c0 .18.05.328.11.328s.109.246.109.547c0 .3.049.547.11.547.072 0 .109 8.458.109 25.156s-.037 25.156-.11 25.156c-.06 0-.11.246-.11.547 0 .3-.049.547-.109.547s-.109.148-.109.328c0 .18-.05.328-.11.328s-.109.099-.109.219-.049.219-.11.219c-.06 0-.109.098-.109.218s-.049.22-.109.22-.11.074-.11.165c0 .091-.417.583-.927 1.094-.51.51-1.003.928-1.094.928-.091 0-.166.049-.166.11 0 .06-.098.109-.218.109s-.22.049-.22.109-.098.11-.218.11-.219.049-.219.109-.147.109-.328.109c-.18 0-.328.05-.328.11s-.246.109-.547.109c-.3 0-.547.049-.547.11 0 .072-8.458.109-25.156.109s-25.156-.037-25.156-.11c0-.06-.246-.11-.547-.11-.3 0-.547-.049-.547-.109s-.148-.109-.328-.109c-.18 0-.328-.05-.328-.11s-.099-.109-.219-.109-.219-.049-.219-.11c0-.06-.098-.109-.218-.109s-.22-.049-.22-.109-.074-.11-.165-.11c-.216 0-2.022-1.805-2.022-2.021 0-.091-.049-.166-.11-.166-.06 0-.109-.098-.109-.218s-.049-.22-.109-.22-.11-.098-.11-.218-.048-.219-.109-.219c-.06 0-.109-.147-.109-.328 0-.18-.05-.328-.11-.328s-.109-.197-.109-.438c0-.24-.049-.437-.11-.437-.072 0-.109-8.531-.109-25.375s.037-25.375.11-25.375c.06 0 .11-.197.11-.438 0-.24.048-.437.109-.437.06 0 .109-.148.109-.328 0-.18.05-.328.11-.328s.109-.099.109-.219.049-.219.11-.219c.06 0 .109-.098.109-.218s.049-.22.109-.22.11-.074.11-.165c0-.216 1.805-2.022 2.021-2.022.091 0 .166-.049.166-.11 0-.06.098-.109.218-.109s.22-.049.22-.109.098-.11.218-.11.219-.048.219-.109c0-.06.147-.109.328-.109.18 0 .328-.05.328-.11s.197-.109.438-.109c.24 0 .437-.049.437-.11 0-.072 8.531-.109 25.375-.109s25.375.037 25.375.11zm-22.75 11.156c0 .063-.328.11-.766.11-.437 0-.765.046-.765.109 0 .06-.148.11-.328.11-.18 0-.328.049-.328.109s-.148.109-.329.109c-.18 0-.328.05-.328.11s-.098.109-.218.109-.22.049-.22.11c0 .06-.098.108-.218.108s-.219.05-.219.11-.074.11-.165.11c-.201 0-2.241 2.017-2.241 2.216 0 .078-.098.212-.219.299-.12.087-.218.245-.218.352 0 .107-.05.195-.11.195s-.11.147-.11.328c0 .18-.049.328-.109.328s-.109.148-.109.328c0 .18-.05.328-.11.328s-.109.197-.109.438c0 .24-.049.437-.11.437-.07 0-.108.985-.108 2.735v2.734h-4.594V35h4.594v9.953c0 6.563.037 9.953.109 9.953a.11.11 0 00.11-.11c0-.069.838-.108 2.296-.108 1.458 0 2.297.04 2.297.109 0 .06.197.11.438.11.24 0 .437-.05.437-.11 0-.17 2.158-.143 2.215.026.032.099.095.086.227-.047.168-.168.183-.974.183-9.98V35h5.906v-7.875H38.5v-1.531c0-.948.042-1.532.11-1.532.06 0 .109-.076.109-.169 0-.218.487-.706.706-.706.093 0 .169-.049.169-.109 0-.07.875-.11 2.406-.11h2.406v-7.874h-3.39c-2.188 0-3.391.039-3.391.11z" fill="#662E1C"/></svg>