<svg width="70" height="70" fill="none" xmlns="http://www.w3.org/2000/svg"><path fill-rule="evenodd" clip-rule="evenodd" d="M17.922.068c0 .04-.25.069-.615.069s-.616.028-.616.068c0 .04-.205.068-.479.068-.273 0-.479.03-.479.069 0 .037-.153.068-.341.068-.189 0-.343.03-.343.069 0 .037-.123.068-.273.068-.15 0-.274.03-.274.068 0 .038-.092.069-.205.069-.113 0-.205.03-.205.068 0 .038-.123.068-.274.068-.15 0-.274.031-.274.069 0 .037-.092.068-.205.068-.113 0-.205.03-.205.068 0 .038-.062.069-.137.069-.075 0-.137.03-.137.068 0 .038-.092.068-.205.068-.113 0-.205.031-.205.069 0 .037-.092.068-.205.068-.113 0-.205.031-.205.069 0 .037-.062.068-.137.068-.075 0-.137.03-.137.068 0 .038-.062.069-.137.069-.075 0-.137.03-.137.068 0 .038-.092.068-.205.068-.113 0-.205.031-.205.069 0 .037-.062.068-.137.068-.075 0-.137.03-.137.068 0 .038-.061.069-.137.069-.075 0-.136.03-.136.068 0 .038-.062.068-.137.068-.075 0-.137.031-.137.069 0 .037-.055.068-.122.068s-.166.062-.22.137c-.054.075-.153.137-.22.137s-.122.03-.122.068c0 .038-.055.068-.122.068s-.166.062-.22.137c-.054.075-.153.137-.22.137s-.122.03-.122.068c0 .038-.055.069-.122.069s-.166.061-.22.136c-.054.075-.14.137-.192.137-.05 0-.21.123-.355.273-.145.15-.3.274-.344.274-.044 0-.167.092-.272.205-.106.113-.227.205-.27.205-.043 0-.291.215-.551.479-.26.263-.505.478-.546.478-.095 0-.685.59-.685.685 0 .04-.247.316-.548.614-.3.297-.547.576-.547.619 0 .043-.092.164-.205.27-.113.105-.205.234-.205.285 0 .052-.062.139-.137.193-.075.054-.137.141-.137.193 0 .052-.092.18-.205.286-.113.105-.205.24-.205.3s-.031.11-.069.11c-.037 0-.068.054-.068.121s-.062.166-.137.22c-.075.055-.137.154-.137.22 0 .068-.03.122-.068.122-.038 0-.069.055-.069.122s-.061.166-.136.22c-.076.054-.137.153-.137.22s-.031.122-.069.122c-.037 0-.068.061-.068.137 0 .075-.03.136-.068.136-.038 0-.069.062-.069.137 0 .075-.03.137-.068.137-.038 0-.069.061-.069.136 0 .076-.03.137-.068.137-.038 0-.068.092-.068.205 0 .113-.031.205-.069.205-.037 0-.068.062-.068.137 0 .075-.031.137-.069.137-.037 0-.068.061-.068.137 0 .075-.03.136-.068.136-.038 0-.069.092-.069.205 0 .113-.03.205-.068.205-.038 0-.069.062-.069.137 0 .075-.03.137-.068.137-.038 0-.069.092-.069.205 0 .113-.03.205-.068.205-.038 0-.068.092-.068.205 0 .113-.031.205-.069.205-.037 0-.068.123-.068.274 0 .15-.03.273-.069.273-.037 0-.068.092-.068.205 0 .113-.03.205-.068.205-.038 0-.069.123-.069.274 0 .15-.03.273-.068.273-.038 0-.069.154-.069.342 0 .188-.03.342-.068.342-.039 0-.068.205-.068.478 0 .274-.03.479-.069.479-.04 0-.068.25-.068.615 0 .364-.028.615-.069.615C.023 17.91 0 23.652 0 35c0 11.348.023 17.09.068 17.09.041 0 .069.25.069.615s.028.615.068.615c.04 0 .069.205.069.479 0 .273.029.478.068.478.038 0 .068.154.068.342 0 .188.031.342.069.342.037 0 .068.123.068.273 0 .15.031.274.069.274.037 0 .068.123.068.273 0 .15.03.274.068.274.038 0 .069.092.069.205 0 .113.03.205.068.205.038 0 .069.092.069.205 0 .113.03.205.068.205.038 0 .069.062.069.137 0 .075.03.136.068.136.038 0 .068.093.068.205 0 .113.031.206.069.206.037 0 .068.092.068.205 0 .112.03.205.069.205.037 0 .068.061.068.136 0 .076.03.137.068.137.038 0 .069.093.069.205 0 .113.03.205.068.205.038 0 .069.062.069.137 0 .075.03.137.068.137.038 0 .068.061.068.136 0 .076.031.137.069.137.037 0 .068.062.068.137 0 .075.031.137.069.137.037 0 .068.061.068.136 0 .076.03.137.068.137.038 0 .069.055.069.122s.061.166.137.22c.075.054.136.153.136.22s.031.122.069.122c.037 0 .068.054.068.121s.062.166.137.22c.075.055.137.154.137.22 0 .068.03.122.068.122.038 0 .069.05.069.11s.092.195.205.3c.113.106.205.234.205.286 0 .052.062.139.137.193.075.054.137.14.137.193 0 .051.092.18.205.285.113.106.205.227.205.27 0 .042.277.352.616.688.338.335.616.642.616.683 0 .096.452.547.548.547.04 0 .286.215.546.478.26.264.508.479.55.479.044 0 .165.092.27.205.106.113.23.205.275.205.045 0 .168.092.273.205.106.113.229.205.274.205.045 0 .168.093.273.205.106.113.241.206.301.206s.11.03.11.068c0 .037.055.068.122.068.066 0 .166.062.22.137.054.075.153.137.22.137s.122.03.122.068c0 .038.055.068.122.068s.166.062.22.137c.054.075.153.137.22.137s.122.03.122.068c0 .038.062.069.137.069.075 0 .137.03.137.068 0 .037.061.068.136.068.076 0 .137.031.137.069 0 .037.062.068.137.068.075 0 .137.03.137.068 0 .038.061.069.137.069.075 0 .136.03.136.068 0 .038.093.068.206.068.113 0 .205.031.205.069 0 .037.062.068.137.068.075 0 .136.03.136.069 0 .037.093.068.206.068.113 0 .205.03.205.068 0 .038.062.069.137.069.075 0 .137.03.137.068 0 .038.092.068.205.068.113 0 .205.031.205.069 0 .037.092.068.205.068.113 0 .205.03.205.068 0 .038.093.069.206.069.113 0 .205.03.205.068 0 .038.154.068.342.068.188 0 .342.031.342.069 0 .037.092.068.205.068.113 0 .205.03.205.069 0 .037.154.068.343.068.188 0 .341.03.341.068 0 .04.206.069.48.069.273 0 .478.029.478.068 0 .04.251.068.616.068s.616.028.616.069c0 .045 5.768.068 17.17.068 11.4 0 17.17-.023 17.17-.068 0-.04.227-.069.547-.069.319 0 .547-.028.547-.068 0-.04.205-.068.479-.068.273 0 .479-.03.479-.069 0-.037.154-.068.342-.068.188 0 .342-.03.342-.069 0-.037.092-.068.205-.068.113 0 .205-.03.205-.068 0-.038.123-.069.274-.069.15 0 .273-.03.273-.068 0-.038.124-.068.274-.068.15 0 .274-.031.274-.069 0-.037.092-.068.205-.068.113 0 .205-.03.205-.068 0-.038.093-.069.205-.069.113 0 .206-.03.206-.068 0-.038.061-.069.136-.069.076 0 .137-.03.137-.068 0-.037.093-.068.206-.068.112 0 .205-.03.205-.069 0-.037.061-.068.136-.068.076 0 .137-.03.137-.068 0-.038.093-.069.206-.069.112 0 .205-.03.205-.068 0-.038.061-.068.137-.068.075 0 .136-.031.136-.069 0-.037.062-.068.137-.068.075 0 .137-.03.137-.068 0-.038.062-.069.137-.069.075 0 .137-.03.137-.068 0-.038.061-.069.136-.069.076 0 .137-.03.137-.068 0-.037.055-.068.122-.068s.166-.062.22-.137c.055-.075.154-.137.22-.137.068 0 .122-.03.122-.068 0-.038.055-.068.122-.068s.166-.062.22-.137c.055-.075.154-.137.22-.137.068 0 .122-.03.122-.068 0-.038.05-.069.11-.069s.195-.092.3-.205c.106-.112.23-.205.274-.205.046 0 .169-.092.274-.205.105-.113.229-.205.274-.205.045 0 .168-.092.273-.205.106-.113.227-.205.27-.205.043 0 .322-.246.62-.547.297-.3.575-.547.615-.547.097 0 .41-.313.41-.41 0-.04.247-.318.548-.615.301-.298.547-.576.547-.618 0-.042.123-.195.274-.34.15-.144.273-.304.273-.355 0-.05.062-.137.137-.191.076-.054.137-.141.137-.193 0-.052.092-.18.205-.286.113-.105.206-.24.206-.3s.03-.11.068-.11c.038 0 .068-.054.068-.121s.062-.166.137-.22c.075-.055.137-.154.137-.22 0-.068.03-.122.068-.122.038 0 .069-.055.069-.122s.061-.166.137-.22c.075-.054.136-.153.136-.22s.031-.122.069-.122c.037 0 .068-.061.068-.137 0-.075.031-.136.069-.136.037 0 .068-.062.068-.137 0-.075.03-.137.068-.137.038 0 .069-.061.069-.136 0-.076.03-.137.068-.137.038 0 .069-.062.069-.137 0-.075.03-.137.068-.137.038 0 .069-.061.069-.136 0-.076.03-.137.068-.137.038 0 .068-.092.068-.205 0-.113.031-.205.069-.205.037 0 .068-.093.068-.205 0-.113.03-.205.069-.205.037 0 .068-.093.068-.206 0-.112.03-.205.068-.205.038 0 .069-.061.069-.136 0-.075.03-.137.068-.137.038 0 .069-.092.069-.205 0-.113.03-.205.068-.205.038 0 .068-.092.068-.205 0-.113.031-.205.069-.205.037 0 .068-.123.068-.274 0-.15.03-.273.069-.273.037 0 .068-.123.068-.274 0-.15.03-.273.068-.273.038 0 .069-.154.069-.342 0-.188.03-.342.068-.342.04 0 .069-.205.069-.478 0-.274.029-.479.068-.479.04 0 .068-.25.068-.615 0-.364.028-.615.069-.615.045 0 0-5.742 0-17.09 0-11.348.045-17.09 0-17.09-.04 0-.069-.25-.069-.615s-.027-.615-.068-.615c-.04 0-.068-.205-.068-.479 0-.273-.03-.478-.069-.478-.037 0-.068-.154-.068-.342 0-.188-.031-.342-.069-.342-.037 0-.068-.123-.068-.273 0-.15-.03-.274-.068-.274-.038 0-.069-.092-.069-.205 0-.113-.03-.205-.068-.205-.038 0-.069-.123-.069-.273 0-.15-.03-.274-.068-.274-.038 0-.069-.092-.069-.205 0-.113-.03-.205-.068-.205-.038 0-.068-.062-.068-.137 0-.075-.031-.136-.069-.136-.037 0-.068-.093-.068-.206 0-.112-.03-.205-.068-.205-.038 0-.069-.092-.069-.205 0-.113-.03-.205-.068-.205-.038 0-.069-.061-.069-.136 0-.076-.03-.137-.068-.137-.038 0-.069-.062-.069-.137 0-.075-.03-.137-.068-.137-.038 0-.068-.092-.068-.205 0-.113-.031-.205-.069-.205-.037 0-.068-.061-.068-.136 0-.076-.03-.137-.069-.137-.037 0-.068-.062-.068-.137 0-.075-.03-.137-.068-.137-.038 0-.069-.061-.069-.136 0-.076-.03-.137-.068-.137-.038 0-.069-.055-.069-.122s-.061-.166-.136-.22c-.076-.054-.137-.153-.137-.22s-.031-.122-.069-.122c-.037 0-.068-.054-.068-.121s-.062-.166-.137-.22c-.075-.055-.137-.154-.137-.22 0-.068-.03-.122-.068-.122-.038 0-.069-.05-.069-.11s-.092-.195-.205-.3c-.113-.106-.205-.234-.205-.286 0-.052-.061-.139-.137-.193-.075-.054-.136-.14-.136-.191 0-.051-.124-.211-.274-.356-.15-.144-.274-.297-.274-.34 0-.042-.215-.289-.479-.548-.263-.26-.478-.506-.478-.546 0-.096-.452-.548-.548-.548-.04 0-.348-.277-.684-.615-.336-.339-.65-.616-.7-.616-.05 0-.135-.061-.19-.136-.053-.076-.14-.137-.19-.137-.052 0-.212-.123-.356-.274-.145-.15-.305-.273-.356-.273-.051 0-.137-.062-.192-.137-.054-.075-.153-.136-.22-.136s-.122-.031-.122-.069c0-.037-.054-.068-.121-.068s-.166-.062-.22-.137c-.055-.075-.154-.137-.221-.137s-.122-.03-.122-.068c0-.038-.054-.068-.121-.068s-.166-.062-.22-.137c-.055-.075-.154-.137-.221-.137s-.122-.03-.122-.068c0-.038-.061-.068-.137-.068-.075 0-.136-.031-.136-.069 0-.037-.062-.068-.137-.068-.075 0-.137-.031-.137-.069 0-.037-.062-.068-.137-.068-.075 0-.137-.03-.137-.068 0-.038-.061-.069-.136-.069-.076 0-.137-.03-.137-.068 0-.038-.062-.068-.137-.068-.075 0-.137-.031-.137-.069 0-.037-.092-.068-.205-.068-.113 0-.205-.03-.205-.068 0-.038-.093-.069-.206-.069-.112 0-.205-.03-.205-.068 0-.038-.061-.069-.137-.069-.075 0-.136-.03-.136-.068 0-.037-.093-.068-.206-.068-.112 0-.205-.031-.205-.069 0-.037-.092-.068-.205-.068-.113 0-.205-.03-.205-.068 0-.038-.123-.069-.274-.069-.15 0-.273-.03-.273-.068 0-.038-.093-.068-.206-.068-.113 0-.205-.031-.205-.069 0-.037-.123-.068-.274-.068-.15 0-.273-.03-.273-.068 0-.038-.154-.069-.342-.069-.188 0-.342-.03-.342-.068 0-.04-.206-.069-.48-.069-.273 0-.478-.029-.478-.068 0-.04-.25-.068-.616-.068-.364 0-.615-.028-.615-.069C52.126.023 46.38 0 35.024 0 23.67 0 17.922.023 17.922.068zm32.972 6.153c0 .041.32.068.821.068.502 0 .821.027.821.068 0 .038.183.069.41.069.229 0 .411.03.411.068 0 .038.123.069.274.069.15 0 .273.03.273.068 0 .037.123.068.274.068.15 0 .274.031.274.069 0 .037.092.068.205.068.113 0 .205.03.205.068 0 .038.092.069.205.069.113 0 .205.03.205.068 0 .038.093.068.206.068.112 0 .205.031.205.069 0 .037.061.068.137.068.075 0 .136.03.136.068 0 .038.062.069.137.069.076 0 .137.03.137.068 0 .038.062.069.137.069.075 0 .137.03.137.068 0 .037.061.068.137.068.075 0 .136.031.136.069 0 .037.062.068.137.068.075 0 .137.03.137.068 0 .038.055.069.122.069s.166.061.22.136c.054.076.153.137.22.137s.122.03.122.068c0 .038.055.069.122.069s.166.061.22.137c.054.075.141.136.193.136.052 0 .18.093.286.205.105.113.226.205.267.205.107 0 2.196 2.1 2.196 2.207 0 .048.061.132.136.186.076.054.137.141.137.193 0 .052.093.18.205.286.113.105.206.24.206.3s.03.11.068.11c.038 0 .068.054.068.121s.062.166.137.22c.075.055.137.154.137.22 0 .068.03.122.069.122.037 0 .068.062.068.137 0 .075.03.137.068.137.038 0 .069.061.069.136 0 .076.03.137.068.137.038 0 .069.062.069.137 0 .075.03.137.068.137.038 0 .068.061.068.136 0 .075.031.137.069.137.037 0 .068.062.068.137 0 .075.03.136.069.136.037 0 .068.093.068.205 0 .113.03.206.068.206.038 0 .069.092.069.205 0 .113.03.205.068.205.038 0 .069.092.069.205 0 .113.03.205.068.205.038 0 .068.123.068.273 0 .15.031.274.069.274.037 0 .068.123.068.273 0 .15.031.274.069.274.038 0 .068.182.068.41 0 .228.03.41.068.41.042 0 .069.342.069.889 0 .547.026.888.068.888.046 0 .89 5.218.89 15.655 0 10.436-.844 15.79-.89 15.79-.042 0-.068.343-.068.89 0 .546-.027.888-.069.888-.038 0-.068.182-.068.41 0 .228-.03.41-.068.41-.038 0-.069.123-.069.274 0 .15-.03.273-.068.273-.038 0-.069.123-.069.274 0 .15-.03.273-.068.273-.038 0-.068.092-.068.205 0 .113-.031.205-.069.205-.038 0-.068.093-.068.205 0 .113-.031.205-.069.205-.037 0-.068.093-.068.206 0 .112-.03.205-.069.205-.037 0-.068.061-.068.136 0 .075-.03.137-.068.137-.038 0-.069.062-.069.137 0 .075-.03.136-.068.136-.038 0-.069.062-.069.137 0 .075-.03.137-.068.137-.038 0-.068.061-.068.137 0 .075-.031.136-.069.136-.037 0-.068.062-.068.137 0 .075-.03.137-.069.137-.037 0-.068.054-.068.121s-.062.166-.137.22c-.075.055-.137.154-.137.22 0 .068-.03.122-.068.122-.038 0-.068.05-.068.11s-.093.195-.206.3c-.112.106-.205.235-.205.286 0 .052-.061.139-.137.193-.075.054-.136.138-.136.186 0 .107-1.952 2.07-2.057 2.07-.041 0-.193.123-.338.273-.144.15-.304.274-.355.274-.051 0-.138.061-.192.136-.054.076-.146.137-.205.137s-.151.062-.205.137c-.055.075-.154.137-.22.137-.068 0-.122.03-.122.068 0 .038-.062.068-.137.068-.075 0-.137.031-.137.069 0 .037-.062.068-.137.068-.075 0-.137.03-.137.068 0 .038-.061.069-.136.069-.076 0-.137.03-.137.068 0 .038-.062.069-.137.069-.075 0-.137.03-.137.068 0 .037-.061.068-.137.068-.075 0-.137.03-.137.069 0 .037-.061.068-.136.068-.076 0-.137.03-.137.068 0 .038-.093.069-.205.069-.113 0-.206.03-.206.068 0 .038-.092.068-.205.068-.113 0-.205.031-.205.069 0 .037-.092.068-.205.068-.113 0-.205.03-.205.068 0 .038-.124.069-.274.069-.15 0-.274.03-.274.068 0 .038-.123.069-.273.069-.15 0-.274.03-.274.068 0 .038-.182.068-.41.068-.228 0-.41.03-.41.069 0 .042-.366.068-.959.068-.592 0-.957.026-.957.068 0 .046-5.268.069-15.665.069-10.398 0-15.665-.023-15.665-.069 0-.042-.342-.068-.89-.068-.547 0-.889-.026-.889-.068 0-.038-.182-.069-.41-.069-.228 0-.41-.03-.41-.068 0-.038-.124-.069-.274-.069-.15 0-.274-.03-.274-.068 0-.038-.123-.068-.274-.068-.15 0-.273-.031-.273-.069 0-.037-.093-.068-.205-.068-.113 0-.206-.03-.206-.068 0-.038-.092-.069-.205-.069-.113 0-.205-.03-.205-.068 0-.038-.093-.068-.205-.068-.113 0-.206-.031-.206-.069 0-.037-.061-.068-.136-.068-.076 0-.137-.03-.137-.069 0-.037-.062-.068-.137-.068-.075 0-.137-.03-.137-.068 0-.038-.061-.069-.137-.069-.075 0-.136-.03-.136-.068 0-.038-.062-.068-.137-.068-.076 0-.137-.031-.137-.069 0-.037-.062-.068-.137-.068-.075 0-.137-.03-.137-.068 0-.038-.055-.069-.121-.069-.067 0-.167-.061-.22-.136-.055-.076-.154-.137-.221-.137s-.122-.03-.122-.069c0-.037-.049-.068-.11-.068-.06 0-.195-.092-.3-.205-.106-.113-.229-.205-.274-.205-.045 0-.168-.092-.274-.205-.105-.113-.225-.205-.267-.205-.099 0-2.058-1.958-2.058-2.057 0-.042-.093-.162-.206-.267-.112-.106-.205-.234-.205-.286 0-.052-.061-.139-.137-.193-.075-.054-.136-.153-.136-.22s-.031-.122-.069-.122c-.037 0-.068-.054-.068-.121s-.062-.166-.137-.22c-.075-.055-.137-.154-.137-.22 0-.068-.03-.122-.068-.122-.038 0-.069-.062-.069-.137 0-.075-.03-.137-.068-.137-.038 0-.068-.061-.068-.136 0-.076-.031-.137-.069-.137-.038 0-.068-.062-.068-.137 0-.075-.031-.137-.069-.137-.037 0-.068-.061-.068-.136 0-.075-.03-.137-.069-.137-.037 0-.068-.062-.068-.137 0-.075-.03-.136-.068-.136-.038 0-.069-.093-.069-.206 0-.112-.03-.205-.068-.205-.038 0-.069-.092-.069-.205 0-.113-.03-.205-.068-.205-.038 0-.068-.092-.068-.205 0-.113-.031-.205-.069-.205-.037 0-.068-.123-.068-.273 0-.15-.03-.274-.069-.274-.037 0-.068-.123-.068-.273 0-.15-.03-.274-.068-.274-.038 0-.069-.182-.069-.41 0-.228-.03-.41-.068-.41-.042 0-.069-.342-.069-.889 0-.546-.026-.888-.068-.888-.045 0-.068-5.31-.068-15.791 0-10.482.023-15.791.068-15.791.042 0 .068-.32.068-.82 0-.502.027-.821.069-.821.038 0 .068-.182.068-.41 0-.228.03-.41.069-.41.037 0 .068-.123.068-.274 0-.15.03-.273.068-.273.038 0 .069-.123.069-.274 0-.15.03-.273.068-.273.038 0 .069-.092.069-.205 0-.113.03-.205.068-.205.038 0 .068-.092.068-.205 0-.113.031-.205.069-.205.037 0 .068-.093.068-.206 0-.112.031-.205.069-.205.037 0 .068-.061.068-.136 0-.075.03-.137.068-.137.038 0 .069-.062.069-.137 0-.075.03-.136.068-.136.038 0 .069-.062.069-.137 0-.075.03-.137.068-.137.038 0 .069-.061.069-.137 0-.075.03-.136.068-.136.038 0 .068-.062.068-.137 0-.075.031-.137.069-.137.037 0 .068-.054.068-.121s.062-.166.137-.22c.075-.055.137-.154.137-.22 0-.068.03-.122.068-.122.038 0 .069-.055.069-.122s.061-.166.136-.22c.076-.054.137-.141.137-.193 0-.052.093-.18.205-.286.113-.105.206-.225.206-.267 0-.106 2.1-2.194 2.207-2.194.049 0 .133-.061.187-.136.054-.075.14-.137.193-.137.052 0 .18-.092.286-.205.105-.113.24-.205.3-.205.061 0 .11-.03.11-.069 0-.037.055-.068.122-.068s.166-.061.22-.137c.054-.075.154-.136.22-.136.067 0 .122-.031.122-.069 0-.037.062-.068.137-.068.075 0 .137-.03.137-.068 0-.038.061-.069.137-.069.075 0 .136-.03.136-.068 0-.038.062-.068.137-.068.076 0 .137-.031.137-.069 0-.037.062-.068.137-.068.075 0 .137-.03.137-.069 0-.037.061-.068.136-.068.076 0 .137-.03.137-.068 0-.038.093-.069.206-.069.112 0 .205-.03.205-.068 0-.038.092-.068.205-.068.113 0 .205-.031.205-.069 0-.037.093-.068.206-.068.112 0 .205-.03.205-.068 0-.038.123-.069.273-.069.15 0 .274-.03.274-.068 0-.038.123-.069.274-.069.15 0 .273-.03.273-.068 0-.038.183-.068.41-.068.229 0 .411-.03.411-.069 0-.041.32-.068.82-.068.503 0 .822-.027.822-.068 0-.046 5.335-.069 15.87-.069s15.87.023 15.87.069zm1.916 5.605c0 .038-.093.069-.205.069-.113 0-.206.03-.206.068 0 .038-.092.068-.205.068-.113 0-.205.031-.205.069 0 .037-.062.068-.137.068-.075 0-.137.03-.137.068 0 .038-.055.069-.121.069-.067 0-.166.061-.22.136-.055.076-.14.137-.188.137-.116 0-.976.86-.976.975 0 .049-.061.133-.136.187-.076.054-.137.153-.137.22s-.031.122-.069.122c-.037 0-.068.062-.068.137 0 .075-.03.136-.069.136-.037 0-.068.062-.068.137 0 .075-.03.137-.068.137-.038 0-.069.092-.069.205 0 .113-.03.205-.068.205-.038 0-.069.154-.069.342 0 .188-.03.342-.068.342-.04 0-.068.227-.068.546 0 .32.028.547.068.547.038 0 .069.154.069.342 0 .188.03.342.068.342.038 0 .068.092.068.205 0 .113.031.205.069.205.037 0 .068.062.068.137 0 .075.03.137.069.137.037 0 .068.061.068.136 0 .075.03.137.068.137.038 0 .069.05.069.11s.092.195.205.3c.113.105.205.226.205.269 0 .107.592.688.701.688.05 0 .134.062.188.137.055.075.147.137.206.137.058 0 .15.061.205.136.054.076.153.137.22.137s.122.03.122.069c0 .037.123.068.274.068.15 0 .273.03.273.068 0 .038.093.069.205.069.113 0 .206.03.206.068 0 .042.342.068.889.068.547 0 .89-.026.89-.068 0-.038.092-.069.204-.069.113 0 .206-.03.206-.068 0-.037.116-.068.258-.068.18 0 .289-.042.357-.137.055-.075.154-.137.22-.137.068 0 .122-.03.122-.068 0-.038.05-.068.11-.068s.195-.093.3-.205c.106-.113.227-.206.27-.206.1 0 .552-.45.552-.55 0-.043.092-.165.205-.27.113-.105.205-.24.205-.3s.03-.11.069-.11c.037 0 .068-.062.068-.137 0-.075.03-.136.068-.136.038 0 .069-.062.069-.137 0-.075.03-.137.068-.137.038 0 .069-.092.069-.205 0-.113.03-.205.068-.205.038 0 .068-.182.068-.41 0-.228.03-.41.069-.41.038 0 .068-.183.068-.41 0-.228-.03-.41-.068-.41-.038 0-.069-.183-.069-.41 0-.229-.03-.41-.068-.41-.038 0-.069-.093-.069-.206 0-.113-.03-.205-.068-.205-.038 0-.068-.062-.068-.137 0-.075-.031-.137-.069-.137-.037 0-.068-.061-.068-.136 0-.075-.03-.137-.069-.137-.037 0-.068-.055-.068-.122s-.062-.166-.137-.22c-.075-.054-.137-.138-.137-.187 0-.116-.86-.975-.975-.975-.049 0-.133-.061-.188-.137-.054-.075-.153-.136-.22-.136s-.122-.031-.122-.069c0-.037-.061-.068-.136-.068-.076 0-.137-.03-.137-.068 0-.038-.093-.069-.205-.069-.113 0-.206-.03-.206-.068 0-.038-.092-.068-.205-.068-.113 0-.205-.031-.205-.069 0-.042-.388-.068-1.026-.068-.639 0-1.026.026-1.026.068zm-19.017 5.195c0 .041-.274.069-.684.069-.41 0-.684.027-.684.068 0 .038-.183.069-.41.069-.229 0-.411.03-.411.068 0 .037-.154.068-.342.068-.188 0-.342.031-.342.069 0 .037-.093.068-.206.068-.112 0-.205.03-.205.068 0 .038-.123.069-.273.069-.15 0-.274.03-.274.068 0 .038-.092.068-.205.068-.113 0-.205.031-.205.069 0 .037-.093.068-.206.068-.113 0-.205.03-.205.069 0 .037-.092.068-.205.068-.113 0-.205.03-.205.068 0 .038-.093.069-.206.069-.112 0-.205.03-.205.068 0 .038-.061.068-.137.068-.075 0-.136.031-.136.069 0 .037-.093.068-.206.068-.112 0-.205.03-.205.068 0 .038-.061.069-.137.069-.075 0-.136.03-.136.068 0 .038-.062.069-.137.069-.075 0-.137.03-.137.068 0 .037-.062.068-.137.068-.075 0-.137.03-.137.069 0 .037-.061.068-.137.068-.075 0-.136.03-.136.068 0 .038-.055.069-.122.069s-.166.061-.22.136c-.055.075-.154.137-.22.137-.068 0-.122.03-.122.068 0 .038-.055.069-.122.069s-.166.061-.22.137c-.055.075-.154.136-.22.136-.068 0-.122.031-.122.069 0 .037-.05.068-.11.068s-.195.092-.3.205c-.106.113-.23.205-.274.205-.046 0-.169.092-.274.205-.106.113-.227.205-.27.205-.044 0-.261.185-.483.41-.221.226-.435.41-.475.41-.096 0-1.508 1.413-1.508 1.508 0 .04-.154.223-.342.407-.189.183-.342.368-.342.412 0 .044-.093.166-.206.271-.113.106-.205.229-.205.274 0 .045-.092.168-.205.273-.113.105-.205.24-.205.3 0 .061-.031.11-.069.11-.037 0-.068.055-.068.122s-.062.166-.137.22c-.075.054-.137.153-.137.22s-.03.122-.068.122c-.038 0-.069.055-.069.122 0 .066-.061.165-.136.22-.076.054-.137.153-.137.22s-.031.121-.069.121c-.037 0-.068.062-.068.137 0 .075-.03.137-.068.137-.038 0-.069.061-.069.137 0 .075-.03.136-.068.136-.038 0-.069.062-.069.137 0 .075-.03.137-.068.137-.038 0-.068.092-.068.205 0 .113-.031.205-.069.205-.038 0-.068.061-.068.137 0 .075-.031.136-.069.136-.037 0-.068.062-.068.137 0 .075-.03.137-.068.137-.038 0-.069.092-.069.205 0 .113-.03.205-.068.205-.038 0-.069.092-.069.205 0 .113-.03.205-.068.205-.038 0-.069.092-.069.205 0 .113-.03.205-.068.205-.037 0-.068.093-.068.205 0 .113-.031.205-.069.205-.037 0-.068.093-.068.206 0 .112-.03.205-.069.205-.037 0-.068.123-.068.273 0 .15-.03.273-.068.273-.038 0-.069.154-.069.342 0 .188-.03.342-.068.342-.04 0-.069.205-.069.478 0 .274-.029.48-.068.48-.04 0-.068.25-.068.614 0 .365-.028.615-.069.615-.043 0-.068.456-.068 1.231 0 .775.025 1.23.068 1.23.04 0 .069.251.069.616 0 .364.027.615.068.615.04 0 .068.205.068.479 0 .273.03.478.069.478.038 0 .068.154.068.342 0 .188.031.342.069.342.037 0 .068.092.068.205 0 .112.03.205.069.205.037 0 .068.123.068.273 0 .15.03.274.068.274.038 0 .069.092.069.205 0 .112.03.205.068.205.038 0 .069.092.069.205 0 .113.03.205.068.205.038 0 .068.092.068.205 0 .113.031.205.069.205.037 0 .068.092.068.205 0 .113.03.205.069.205.037 0 .068.062.068.137 0 .075.03.137.068.137.038 0 .069.092.069.205 0 .113.03.205.068.205.038 0 .069.061.069.136 0 .076.03.137.068.137.038 0 .068.062.068.137 0 .075.031.137.069.137.037 0 .068.061.068.136 0 .076.031.137.069.137.037 0 .068.062.068.137 0 .075.03.137.068.137.038 0 .069.054.069.121s.061.166.137.22c.075.055.136.154.136.22 0 .067.031.122.069.122.038 0 .068.055.068.122s.062.166.137.22c.075.054.137.153.137.22s.03.122.068.122c.038 0 .069.049.069.11 0 .06.092.195.205.3.113.105.205.228.205.273 0 .045.092.168.205.274.113.105.206.227.206.27 0 .045.154.23.342.413.188.183.342.366.342.407 0 .096 1.412 1.507 1.508 1.507.04 0 .254.185.475.41.222.226.439.41.482.41.044 0 .165.093.27.206.106.113.23.205.274.205.046 0 .169.092.274.205.106.113.241.205.301.205s.11.03.11.068c0 .038.054.069.121.069s.166.061.22.136c.055.076.154.137.221.137s.122.031.122.069c0 .037.054.068.121.068s.166.062.22.137c.055.075.154.136.221.136s.122.031.122.069c0 .037.061.068.136.068.076 0 .137.03.137.069 0 .037.062.068.137.068.075 0 .137.03.137.068 0 .038.062.069.137.069.075 0 .137.03.137.068 0 .038.061.068.136.068.076 0 .137.031.137.069 0 .037.093.068.205.068.113 0 .206.03.206.068 0 .038.061.069.136.069.076 0 .137.03.137.068 0 .038.093.068.206.068.112 0 .205.031.205.069 0 .037.092.068.205.068.113 0 .205.03.205.069 0 .037.062.068.137.068.075 0 .137.03.137.068 0 .038.123.069.273.069.15 0 .274.03.274.068 0 .038.092.068.205.068.113 0 .205.031.205.069 0 .037.124.068.274.068.15 0 .274.03.274.068 0 .038.154.069.342.069.188 0 .342.03.342.068 0 .04.205.068.479.068.273 0 .479.03.479.069 0 .04.227.068.547.068.319 0 .547.029.547.069 0 .043.479.068 1.3.068.82 0 1.3-.025 1.3-.069 0-.04.25-.068.615-.068s.616-.028.616-.068c0-.04.205-.069.479-.069.273 0 .478-.029.478-.068 0-.038.154-.068.342-.068.189 0 .343-.031.343-.069 0-.037.092-.068.205-.068.113 0 .205-.03.205-.068 0-.038.123-.069.274-.069.15 0 .273-.03.273-.068 0-.038.123-.068.274-.068.15 0 .273-.031.273-.069 0-.037.062-.068.137-.068.075 0 .137-.03.137-.069 0-.037.092-.068.205-.068.113 0 .206-.03.206-.068 0-.038.092-.069.205-.069.113 0 .205-.03.205-.068 0-.038.061-.068.137-.068.075 0 .137-.031.137-.069 0-.037.092-.068.205-.068.113 0 .205-.03.205-.068 0-.038.062-.069.137-.069.075 0 .137-.03.137-.068 0-.038.061-.069.136-.069.076 0 .137-.03.137-.068 0-.037.062-.068.137-.068.075 0 .137-.03.137-.069 0-.037.062-.068.137-.068.075 0 .137-.03.137-.068 0-.038.054-.069.121-.069s.166-.061.22-.136c.055-.075.154-.137.22-.137.068 0 .123-.03.123-.068 0-.038.054-.069.121-.069s.166-.061.22-.136c.055-.076.147-.137.206-.137s.15-.062.205-.137c.054-.075.147-.137.205-.137.059 0 .151-.061.205-.136.055-.076.142-.137.193-.137.052 0 .18-.092.286-.205.106-.113.228-.205.272-.205.043 0 .23-.154.412-.342.184-.188.367-.342.407-.342.096 0 1.509-1.411 1.509-1.507 0-.04.184-.254.41-.475.226-.222.41-.438.41-.482 0-.043.093-.165.206-.27.113-.106.205-.234.205-.286 0-.052.062-.139.137-.193.075-.054.137-.146.137-.205 0-.058.061-.15.137-.205.075-.054.136-.146.136-.205s.062-.15.137-.205c.075-.054.137-.153.137-.22s.03-.122.068-.122c.038 0 .069-.055.069-.121 0-.067.061-.166.137-.22.075-.055.136-.154.136-.22 0-.068.031-.122.069-.122.037 0 .068-.062.068-.137 0-.075.031-.137.069-.137.037 0 .068-.061.068-.137 0-.075.03-.136.068-.136.038 0 .069-.062.069-.137 0-.075.03-.137.068-.137.038 0 .069-.092.069-.205 0-.113.03-.205.068-.205.038 0 .069-.061.069-.137 0-.075.03-.136.068-.136.038 0 .068-.062.068-.137 0-.075.031-.137.069-.137.037 0 .068-.092.068-.205 0-.113.03-.205.069-.205.037 0 .068-.092.068-.205 0-.113.03-.205.068-.205.038 0 .069-.092.069-.205 0-.113.03-.205.068-.205.038 0 .069-.093.069-.205 0-.113.03-.205.068-.205.038 0 .068-.123.068-.274 0-.15.031-.273.069-.273.037 0 .068-.093.068-.205 0-.113.031-.205.069-.205.037 0 .068-.154.068-.342 0-.188.03-.342.068-.342.04 0 .069-.205.069-.478 0-.274.03-.48.068-.48.04 0 .069-.25.069-.614 0-.365.027-.615.068-.615.043 0 .068-.479.068-1.3 0-.82-.025-1.298-.068-1.298-.04 0-.068-.228-.068-.547 0-.32-.029-.547-.069-.547-.039 0-.068-.205-.068-.479 0-.273-.03-.478-.069-.478-.037 0-.068-.154-.068-.342 0-.188-.03-.342-.068-.342-.038 0-.069-.123-.069-.273 0-.15-.03-.273-.068-.273-.038 0-.069-.093-.069-.206 0-.112-.03-.205-.068-.205-.038 0-.069-.092-.069-.205 0-.113-.03-.205-.068-.205-.038 0-.068-.092-.068-.205 0-.113-.031-.205-.069-.205-.037 0-.068-.092-.068-.205 0-.113-.03-.205-.069-.205-.037 0-.068-.092-.068-.205 0-.113-.03-.205-.068-.205-.038 0-.069-.062-.069-.137 0-.075-.03-.137-.068-.137-.038 0-.069-.061-.069-.136 0-.076-.03-.137-.068-.137-.038 0-.068-.092-.068-.205 0-.113-.031-.205-.069-.205-.037 0-.068-.062-.068-.137 0-.075-.03-.137-.069-.137-.037 0-.068-.061-.068-.136 0-.076-.03-.137-.068-.137-.038 0-.069-.062-.069-.137 0-.075-.03-.137-.068-.137-.038 0-.069-.054-.069-.121s-.061-.166-.136-.22c-.076-.055-.137-.154-.137-.22 0-.067-.031-.122-.069-.122-.037 0-.068-.055-.068-.122s-.062-.166-.137-.22c-.075-.054-.137-.146-.137-.205s-.061-.15-.136-.205c-.076-.054-.137-.147-.137-.205 0-.059-.062-.151-.137-.205-.075-.055-.137-.141-.137-.193 0-.052-.092-.18-.205-.286-.113-.105-.205-.227-.205-.27 0-.045-.154-.23-.342-.413-.189-.183-.342-.366-.342-.407 0-.096-1.55-1.644-1.646-1.644-.04 0-.223-.154-.407-.342-.183-.188-.369-.342-.412-.342-.044 0-.166-.092-.272-.205-.105-.113-.234-.205-.286-.205-.051 0-.138-.061-.193-.137-.054-.075-.146-.136-.205-.136-.058 0-.15-.062-.205-.137-.054-.075-.146-.137-.205-.137s-.151-.061-.205-.137c-.055-.075-.154-.136-.22-.136-.068 0-.122-.031-.122-.069 0-.037-.055-.068-.122-.068s-.166-.062-.22-.137c-.055-.075-.154-.136-.22-.136-.068 0-.122-.031-.122-.069 0-.037-.062-.068-.137-.068-.075 0-.137-.03-.137-.069 0-.037-.062-.068-.137-.068-.075 0-.137-.03-.137-.068 0-.038-.061-.069-.137-.069-.075 0-.136-.03-.136-.068 0-.037-.062-.068-.137-.068-.075 0-.137-.031-.137-.069 0-.037-.092-.068-.205-.068-.113 0-.205-.03-.205-.068 0-.038-.062-.069-.137-.069-.076 0-.137-.03-.137-.068 0-.038-.092-.068-.205-.068-.113 0-.206-.031-.206-.069 0-.037-.092-.068-.205-.068-.113 0-.205-.03-.205-.069 0-.037-.092-.068-.205-.068-.113 0-.205-.03-.205-.068 0-.038-.093-.069-.206-.069-.112 0-.205-.03-.205-.068 0-.037-.123-.068-.273-.068-.15 0-.274-.031-.274-.069 0-.037-.092-.068-.205-.068-.113 0-.206-.03-.206-.068 0-.038-.153-.069-.342-.069-.188 0-.342-.03-.342-.068 0-.038-.182-.068-.41-.068-.228 0-.41-.03-.41-.069 0-.041-.297-.068-.753-.068s-.752-.027-.752-.069c0-.042-.434-.068-1.163-.068-.73 0-1.163.026-1.163.069zm2.873 6.29c0 .038.182.068.41.068.228 0 .41.03.41.068 0 .038.124.069.274.069.15 0 .274.03.274.068 0 .038.123.068.274.068.15 0 .273.031.273.069 0 .037.093.068.205.068.113 0 .206.03.206.068 0 .038.061.069.137.069.075 0 .136.03.136.068 0 .038.093.069.206.069.112 0 .205.03.205.068 0 .038.061.068.137.068.075 0 .136.031.136.069 0 .037.062.068.137.068.075 0 .137.03.137.068 0 .038.062.069.137.069.075 0 .137.03.137.068 0 .038.061.068.136.068.076 0 .137.031.137.069 0 .037.055.068.122.068s.166.062.22.137c.054.075.154.137.22.137.068 0 .122.03.122.068 0 .037.05.068.11.068s.195.093.3.205c.106.113.228.205.272.205.044 0 .23.154.413.342.183.188.366.342.407.342.097 0 .824.727.824.823 0 .041.154.224.342.407.188.184.342.37.342.413 0 .044.093.166.205.271.113.105.206.24.206.3 0 .061.03.11.068.11.038 0 .069.055.069.122s.061.166.136.22c.075.054.137.153.137.22s.03.122.069.122c.037 0 .068.061.068.137 0 .075.03.136.068.136.038 0 .069.062.069.137 0 .075.03.137.068.137.038 0 .069.061.069.136 0 .076.03.137.068.137.038 0 .068.062.068.137 0 .075.031.137.069.137.037 0 .068.092.068.205 0 .112.03.205.069.205.037 0 .068.061.068.136 0 .076.03.137.068.137.038 0 .069.092.069.205 0 .113.03.205.068.205.038 0 .069.123.069.274 0 .15.03.273.068.273.038 0 .068.123.068.274 0 .15.031.273.069.273.038 0 .068.182.068.41 0 .228.03.41.069.41.043 0 .068.593.068 1.641s-.025 1.64-.068 1.64c-.038 0-.069.183-.069.41 0 .229-.03.41-.068.41-.038 0-.069.124-.069.274 0 .15-.03.274-.068.274-.038 0-.068.123-.068.273 0 .15-.031.274-.069.274-.037 0-.068.092-.068.205 0 .113-.031.205-.069.205-.037 0-.068.061-.068.137 0 .075-.03.136-.068.136-.038 0-.069.093-.069.205 0 .113-.03.205-.068.205-.038 0-.069.062-.069.137 0 .075-.03.137-.068.137-.038 0-.069.061-.069.137 0 .075-.03.136-.068.136-.038 0-.068.062-.068.137 0 .075-.031.137-.069.137-.037 0-.068.061-.068.136 0 .076-.03.137-.069.137-.037 0-.068.055-.068.122s-.061.166-.137.22c-.075.054-.137.146-.137.205s-.061.15-.136.205c-.076.054-.137.147-.137.205 0 .059-.062.151-.137.205-.075.054-.137.14-.137.19 0 .051-.154.242-.342.425-.188.184-.342.367-.342.408 0 .096-.727.823-.824.823-.04 0-.224.154-.407.342-.183.188-.37.342-.413.342-.044 0-.166.092-.271.205-.106.112-.241.205-.301.205s-.11.03-.11.068c0 .038-.054.069-.121.069s-.166.061-.22.136c-.055.075-.154.137-.221.137s-.122.03-.122.068c0 .038-.061.069-.137.069-.075 0-.136.03-.136.068 0 .038-.062.068-.137.068-.075 0-.137.031-.137.069 0 .037-.062.068-.137.068-.075 0-.137.03-.137.068 0 .038-.061.069-.136.069-.076 0-.137.03-.137.068 0 .038-.093.069-.206.069-.112 0-.205.03-.205.068 0 .038-.061.068-.136.068-.076 0-.137.031-.137.069 0 .037-.093.068-.206.068-.112 0-.205.03-.205.068 0 .038-.123.069-.273.069-.15 0-.274.03-.274.068 0 .038-.123.068-.274.068-.15 0-.273.031-.273.069 0 .038-.183.068-.41.068-.229 0-.411.03-.411.069 0 .043-.593.068-1.642.068s-1.642-.025-1.642-.069c0-.038-.182-.068-.41-.068-.228 0-.41-.03-.41-.068 0-.038-.124-.069-.274-.069-.15 0-.274-.03-.274-.068 0-.038-.123-.068-.273-.068-.15 0-.274-.031-.274-.069 0-.037-.092-.068-.205-.068-.113 0-.206-.03-.206-.068 0-.038-.061-.069-.136-.069-.076 0-.137-.03-.137-.068 0-.038-.092-.069-.205-.069-.113 0-.206-.03-.206-.068 0-.038-.061-.068-.136-.068-.076 0-.137-.031-.137-.069 0-.037-.062-.068-.137-.068-.075 0-.137-.03-.137-.068 0-.038-.061-.069-.137-.069-.075 0-.136-.03-.136-.068 0-.038-.062-.068-.137-.068-.075 0-.137-.031-.137-.069 0-.037-.055-.068-.122-.068s-.166-.062-.22-.137c-.054-.075-.153-.136-.22-.136s-.122-.031-.122-.069c0-.038-.05-.068-.11-.068s-.195-.093-.3-.205c-.106-.113-.228-.205-.272-.205-.044 0-.23-.154-.413-.342-.183-.188-.366-.342-.407-.342-.097 0-.687-.589-.687-.686 0-.04-.185-.255-.41-.476-.226-.221-.411-.438-.411-.482 0-.043-.092-.165-.205-.27-.113-.105-.205-.24-.205-.3 0-.061-.031-.11-.069-.11-.037 0-.068-.055-.068-.122s-.062-.166-.137-.22c-.075-.054-.137-.153-.137-.22s-.03-.122-.068-.122c-.038 0-.069-.061-.069-.136 0-.076-.03-.137-.068-.137-.038 0-.069-.062-.069-.137 0-.075-.03-.137-.068-.137-.037 0-.068-.061-.068-.136 0-.076-.031-.137-.069-.137-.037 0-.068-.062-.068-.137 0-.075-.03-.137-.069-.137-.037 0-.068-.092-.068-.205 0-.112-.03-.205-.068-.205-.038 0-.069-.061-.069-.136 0-.076-.03-.137-.068-.137-.038 0-.069-.092-.069-.205 0-.113-.03-.205-.068-.205-.038 0-.068-.123-.068-.274 0-.15-.031-.273-.069-.273-.037 0-.068-.123-.068-.274 0-.15-.031-.273-.069-.273-.038 0-.068-.182-.068-.41 0-.228-.03-.41-.068-.41-.044 0-.069-.593-.069-1.641s.025-1.64.069-1.64c.038 0 .068-.183.068-.41 0-.229.03-.41.068-.41.038 0 .069-.124.069-.274 0-.15.03-.274.068-.274.038 0 .069-.123.069-.273 0-.15.03-.274.068-.274.038 0 .069-.092.069-.205 0-.113.03-.205.068-.205.038 0 .068-.061.068-.137 0-.075.031-.136.069-.136.037 0 .068-.093.068-.205 0-.113.03-.205.069-.205.037 0 .068-.062.068-.137 0-.075.03-.137.068-.137.038 0 .069-.061.069-.137 0-.075.03-.136.068-.136.038 0 .069-.062.069-.137 0-.075.03-.137.068-.137.038 0 .068-.061.068-.136 0-.076.031-.137.069-.137.037 0 .068-.055.068-.122s.062-.166.137-.22c.075-.054.137-.153.137-.22s.03-.122.068-.122c.038 0 .069-.049.069-.11 0-.06.092-.195.205-.3.113-.105.205-.227.205-.27 0-.044.185-.26.41-.482.226-.221.41-.436.41-.476 0-.097.59-.686.688-.686.04 0 .224-.154.407-.342.184-.188.37-.342.413-.342.044 0 .166-.092.271-.205.106-.113.241-.205.302-.205.06 0 .109-.03.109-.068 0-.038.055-.069.122-.069s.166-.061.22-.136c.054-.075.153-.137.22-.137s.122-.03.122-.068c0-.038.062-.069.137-.069.075 0 .137-.03.137-.068 0-.038.061-.068.136-.068.076 0 .137-.031.137-.069 0-.037.062-.068.137-.068.075 0 .137-.03.137-.068 0-.038.061-.069.137-.069.075 0 .136-.03.136-.068 0-.038.093-.069.206-.069.113 0 .205-.03.205-.068 0-.038.061-.068.137-.068.075 0 .136-.031.136-.069 0-.037.093-.068.206-.068.113 0 .205-.03.205-.068 0-.038.123-.069.274-.069.15 0 .273-.03.273-.068 0-.038.123-.068.274-.068.15 0 .274-.031.274-.069 0-.038.182-.068.41-.068.228 0 .41-.03.41-.069 0-.043.593-.068 1.642-.068s1.642.025 1.642.069z" fill="#662E1C"/></svg>